<?xml version="1.0" encoding="UTF-8" standalone="no"?>
<!-- Created with Inkscape (http://www.inkscape.org/) -->

<svg
   xmlns:dc="http://purl.org/dc/elements/1.1/"
   xmlns:cc="http://creativecommons.org/ns#"
   xmlns:rdf="http://www.w3.org/1999/02/22-rdf-syntax-ns#"
   xmlns:svg="http://www.w3.org/2000/svg"
   xmlns="http://www.w3.org/2000/svg"
   xmlns:sodipodi="http://sodipodi.sourceforge.net/DTD/sodipodi-0.dtd"
   xmlns:inkscape="http://www.inkscape.org/namespaces/inkscape"
   width="90mm"
   height="90mm"
   viewBox="0 0 318.89764 318.89764"
   id="svg3383"
   version="1.1"
   inkscape:version="0.91 r13725"
   sodipodi:docname="settingsIcon.svg">
  <defs
     id="defs3385" />
  <sodipodi:namedview
     id="base"
     pagecolor="#ffffff"
     bordercolor="#666666"
     borderopacity="1.0"
     inkscape:pageopacity="0.0"
     inkscape:pageshadow="2"
     inkscape:zoom="0.35"
     inkscape:cx="-46.428571"
     inkscape:cy="520"
     inkscape:document-units="px"
     inkscape:current-layer="layer1"
     showgrid="false"
     inkscape:window-width="1440"
     inkscape:window-height="837"
     inkscape:window-x="-8"
     inkscape:window-y="-8"
     inkscape:window-maximized="1"
     showguides="false" />
  <metadata
     id="metadata3388">
    <rdf:RDF>
      <cc:Work
         rdf:about="">
        <dc:format>image/svg+xml</dc:format>
        <dc:type
           rdf:resource="http://purl.org/dc/dcmitype/StillImage" />
        <dc:title />
      </cc:Work>
    </rdf:RDF>
  </metadata>
  <g
     inkscape:label="Layer 1"
     inkscape:groupmode="layer"
     id="layer1"
     transform="translate(0,-733.46457)">
    <path
       style="fill:#ffffff"
       d="m 140.76937,1016.8925 c -0.81128,-0.4409 -1.75274,-1.5108 -2.09213,-2.3775 -0.33939,-0.8667 -1.52928,-7.802 -2.6442,-15.41175 -1.11492,-7.60977 -2.24489,-14.36451 -2.51105,-15.01055 -0.31281,-0.75927 -1.75174,-1.63287 -4.06937,-2.47058 -1.97198,-0.71278 -5.14531,-1.99782 -7.05182,-2.85563 l -3.46638,-1.55966 -11.39937,8.69163 c -6.26964,4.7804 -11.872218,8.94471 -12.450165,9.25402 -0.577947,0.3093 -1.975839,0.56237 -3.106427,0.56237 -2.318695,0 -3.13305,-0.68083 -16.85748,-14.09344 -10.519015,-10.28002 -14.480353,-15.21913 -14.480353,-18.05448 0,-2.52184 0.704384,-3.63859 8.931413,-14.16011 3.278714,-4.19314 6.674089,-8.54686 7.545279,-9.67493 l 1.583983,-2.05104 -2.221577,-4.74073 c -1.221871,-2.60741 -2.666977,-6.18716 -3.211346,-7.95501 -0.54437,-1.76786 -1.257613,-3.31414 -1.584985,-3.43619 -0.327373,-0.12205 -7.329654,-1.19944 -15.560624,-2.3942 -14.132622,-2.05142 -15.051822,-2.25763 -16.518415,-3.70573 l -1.553013,-1.53341 0.0021,-19.95025 c 0.002,-18.70325 0.07014,-20.06182 1.090499,-21.73521 0.598614,-0.98173 1.555949,-1.93335 2.12741,-2.11473 0.571461,-0.18137 7.745738,-1.34641 15.942837,-2.58896 8.197099,-1.24256 14.938896,-2.32397 14.98177,-2.40313 0.04287,-0.0792 1.028774,-2.55817 2.190889,-5.50889 1.162116,-2.95073 2.581265,-6.2442 3.153666,-7.31883 l 1.040722,-1.95388 -3.128768,-4.25818 c -1.7208,-2.34199 -5.679103,-7.42989 -8.796204,-11.30644 -6.863639,-8.53587 -7.456461,-9.59982 -6.645372,-11.92651 0.91339,-2.62014 6.92842,-9.49192 16.521772,-18.87502 9.563874,-9.35427 13.242985,-12.129 16.082255,-12.129 1.992127,0 2.103994,0.0768 17.548694,12.04131 l 8.5799,6.64658 2.71474,-1.35407 c 1.49311,-0.74473 4.62072,-2.06121 6.95024,-2.92549 2.32952,-0.86428 4.4042,-1.72784 4.6104,-1.91901 0.2062,-0.19116 1.04778,-5.1703 1.87017,-11.06475 1.61327,-11.56305 2.763,-17.73043 3.77102,-20.22854 1.25686,-3.11478 2.02024,-3.22077 23.18074,-3.21847 18.13041,0.002 19.48436,0.0718 21.15508,1.0905 0.98173,0.59862 1.9278,1.55065 2.10238,2.11564 0.17458,0.56498 1.33964,7.74775 2.58902,15.96171 1.24938,8.21396 2.46342,15.1048 2.69785,15.31298 0.23443,0.20819 2.33221,1.08566 4.66173,1.94994 2.32952,0.86428 5.41702,2.16043 6.86111,2.88033 l 2.62562,1.30891 12.28948,-9.29878 c 10.74976,-8.13377 12.55137,-9.29879 14.37987,-9.29879 2.69225,0 4.2063,1.20152 15.16123,12.03161 14.62416,14.4575 17.44362,18.23699 16.39999,21.98408 -0.23646,0.84897 -4.37195,6.63004 -9.18997,12.84683 l -8.76004,11.30325 2.45691,5.2246 c 1.35131,2.87352 2.78155,6.33217 3.17832,7.68589 0.44552,1.52003 1.16614,2.63805 1.88433,2.92347 0.63961,0.2542 7.64323,1.4212 15.5636,2.59335 13.39644,1.98256 14.50559,2.23502 15.90531,3.62032 2.1089,2.08717 2.26565,3.91799 2.06178,24.08062 -0.17012,16.82535 -0.23044,17.67841 -1.35781,19.20089 -1.55221,2.09623 -3.31224,2.55878 -17.73875,4.66197 -15.64146,2.28031 -15.23421,2.18705 -15.80706,3.61971 -0.26782,0.66981 -1.68204,3.96346 -3.14271,7.31922 l -2.65574,6.10139 2.02781,2.93432 c 1.1153,1.61388 5.2145,6.95754 9.10934,11.87481 3.89483,4.91726 7.23118,9.53678 7.4141,10.2656 0.18292,0.72882 0.15112,1.91526 -0.0707,2.63653 -0.68817,2.23786 -6.3835,8.85856 -15.22125,17.69438 -11.68297,11.68041 -16.40553,14.65418 -20.11727,12.66773 -0.61428,-0.32876 -5.23544,-3.83521 -10.26923,-7.7921 -5.03379,-3.9569 -10.0857,-7.89624 -11.22645,-8.75409 l -2.07411,-1.55972 -2.44375,1.26326 c -1.34407,0.69479 -4.60091,2.08163 -7.23744,3.08187 l -4.79369,1.8186 -1.47426,10.64663 c -2.60056,18.78043 -3.56967,22.25983 -6.51136,23.37833 -0.80589,0.3064 -9.76089,0.5297 -20.72437,0.5169 -15.57238,-0.018 -19.59053,-0.1776 -20.78036,-0.8243 z m 31.44447,-83.02562 c 14.12433,-3.57779 25.96976,-15.5287 29.60652,-29.87015 3.13117,-12.34768 0.23969,-25.95379 -7.59068,-35.71857 -9.23465,-11.51599 -22.89865,-17.18767 -37.21439,-15.44705 -10.25298,1.24665 -16.63419,4.42902 -24.45434,12.19562 -4.41631,4.38608 -5.53774,5.90156 -7.73105,10.44769 -5.80854,12.03947 -5.80583,24.73393 0.008,36.63881 2.1978,4.50055 3.42049,6.15818 7.7492,10.50576 7.10233,7.13327 13.71546,10.6249 22.92873,12.10597 4.03973,0.6494 12.45398,0.21702 16.69821,-0.85808 z"
       id="path3415"
       inkscape:connector-curvature="0" />
  </g>
</svg>
